<?xml version="1.0" encoding="UTF-8"?>
<svg version="1.1" xmlns="http://www.w3.org/2000/svg" width="500" height="500">
<path d="M0 0 C165 0 330 0 500 0 C500 165 500 330 500 500 C335 500 170 500 0 500 C0 335 0 170 0 0 Z " fill="#001327" transform="translate(0,0)"/>
<path d="M0 0 C5.49481307 3.82772407 8.41876484 8.51946718 11.45703125 14.30078125 C14.35562803 19.7048968 17.32799109 25.03089691 20.53125 30.26171875 C21.13066406 31.245354 21.73007812 32.22898926 22.34765625 33.24243164 C23.53031803 35.17309485 24.72407531 37.09701219 25.9296875 39.01342773 C26.46851563 39.89844971 27.00734375 40.78347168 27.5625 41.6953125 C28.29182739 42.86670776 28.29182739 42.86670776 29.03588867 44.06176758 C30.18002781 46.92044759 29.86688388 48.46217076 28.95703125 51.36328125 C27.95703125 52.36328125 27.95703125 52.36328125 25.12255859 52.75390625 C21.95703125 52.36328125 21.95703125 52.36328125 19.99072266 50.16015625 C19.43562012 49.1546875 18.88051758 48.14921875 18.30859375 47.11328125 C17.69628906 46.03046875 17.08398438 44.94765625 16.453125 43.83203125 C15.83566406 42.68734375 15.21820313 41.54265625 14.58203125 40.36328125 C13.94136719 39.21859375 13.30070312 38.07390625 12.640625 36.89453125 C11.05879489 34.0614027 9.49903051 31.21822612 7.95703125 28.36328125 C4.90145462 31.27021703 2.82825525 34.55833674 0.70703125 38.17578125 C0.14242187 39.08166992 0.14242187 39.08166992 -0.43359375 40.00585938 C-2.10563357 42.8612362 -3.03987908 44.97552777 -3.06640625 48.3046875 C-1.6978918 52.39456083 0.32004269 55.83166145 2.58203125 59.48828125 C3.49406124 60.99184089 4.40551614 62.49574952 5.31640625 64 C5.76564453 64.73653809 6.21488281 65.47307617 6.67773438 66.23193359 C7.83487492 68.15976507 8.94674738 70.1030943 10.03515625 72.0703125 C10.92460937 73.66939453 10.92460937 73.66939453 11.83203125 75.30078125 C12.34507812 76.23792969 12.858125 77.17507813 13.38671875 78.140625 C15.10199844 80.56847114 16.1789557 81.39068613 18.95703125 82.36328125 C22.94049083 82.79784048 25.10706771 82.93324421 28.47753906 80.6730957 C31.07084202 78.25725883 32.51220458 76.13874124 34.19140625 73.03125 C35.04569214 71.47349854 35.04569214 71.47349854 35.91723633 69.88427734 C36.50786865 68.78422363 37.09850098 67.68416992 37.70703125 66.55078125 C38.95404726 64.27511921 40.20274 62.00037516 41.453125 59.7265625 C42.05495605 58.62779785 42.65678711 57.5290332 43.27685547 56.39697266 C45.36392405 52.62860383 47.53444273 48.92029015 49.76953125 45.23828125 C50.28821777 44.37601929 50.28821777 44.37601929 50.81738281 43.49633789 C52.65874342 40.4495729 54.54596912 37.43745245 56.46875 34.44140625 C62.53951791 25.14702597 62.53951791 25.14702597 63.95703125 14.36328125 C62.62201246 11.31180973 61.93329691 9.85141408 58.95703125 8.36328125 C54.54392965 7.84359168 51.09543974 7.50947488 47.45703125 10.23828125 C44.93204807 13.81534075 44.61237765 15.96894782 44.95703125 20.36328125 C45.45203125 21.18828125 45.94703125 22.01328125 46.45703125 22.86328125 C48.28850221 25.91573285 48.27535577 27.86171154 47.95703125 31.36328125 C46.95703125 32.36328125 46.95703125 32.36328125 44.14453125 32.80078125 C40.95703125 32.36328125 40.95703125 32.36328125 38.70703125 29.73828125 C35.80534963 24.14218099 33.68883811 18.73791577 34.95703125 12.36328125 C37.24188965 6.96418524 40.26998512 1.46756195 45.78125 -1.07421875 C51.74011774 -2.61475188 57.90426718 -2.88698247 63.65625 -0.53125 C68.53025827 2.47371708 72.23505673 5.83265327 73.95703125 11.36328125 C75.33170703 21.07440343 72.58769467 27.38691999 67.58203125 35.55078125 C66.62127686 37.18696411 66.62127686 37.18696411 65.64111328 38.85620117 C63.76765887 42.03844624 61.86347814 45.20073688 59.95703125 48.36328125 C59.04164475 49.92609118 58.12970585 51.4909304 57.22265625 53.05859375 C55.26070359 56.44659897 53.26378335 59.8120353 51.25488281 63.17236328 C49.78026907 65.6616755 48.33365965 68.1663826 46.88671875 70.671875 C45.82712417 72.48585309 44.76723277 74.29965783 43.70703125 76.11328125 C43.22347168 76.95995361 42.73991211 77.80662598 42.24169922 78.67895508 C38.42712782 85.15222656 34.48373556 90.15800483 26.95703125 92.36328125 C24.37890625 92.76953125 24.37890625 92.76953125 21.70703125 92.86328125 C20.835625 92.91484375 19.96421875 92.96640625 19.06640625 93.01953125 C13.04431209 91.7485365 8.64483605 88.60970535 4.95654297 83.70068359 C3.03304774 80.61837161 1.25614383 77.4919268 -0.48046875 74.30078125 C-1.09083984 73.22505859 -1.70121094 72.14933594 -2.33007812 71.04101562 C-4.85114218 66.55757977 -7.21842846 62.1797838 -9.04296875 57.36328125 C-9.70296875 57.36328125 -10.36296875 57.36328125 -11.04296875 57.36328125 C-11.31085205 58.07355469 -11.57873535 58.78382813 -11.85473633 59.515625 C-14.02006651 64.7049431 -16.9371999 69.49177386 -19.73046875 74.36328125 C-20.33052734 75.44351563 -20.93058594 76.52375 -21.54882812 77.63671875 C-25.62759019 84.7340276 -29.0103853 89.68575343 -37.04296875 92.36328125 C-42.93914788 93.05335259 -48.39158369 93.44522301 -53.41796875 89.92578125 C-60.98348084 82.9636279 -65.55054549 73.15011281 -70.54296875 64.30078125 C-71.94855694 61.81919563 -73.35665909 59.33904418 -74.765625 56.859375 C-75.11959854 56.23594208 -75.47357208 55.61250916 -75.83827209 54.97018433 C-78.24609274 50.73834849 -80.69122586 46.53007856 -83.1640625 42.3359375 C-83.80730469 41.2435376 -84.45054687 40.1511377 -85.11328125 39.02563477 C-86.33449919 36.95732462 -87.55960545 34.89130411 -88.7890625 32.82788086 C-89.335625 31.90112549 -89.8821875 30.97437012 -90.4453125 30.01953125 C-90.92476318 29.21322266 -91.40421387 28.40691406 -91.89819336 27.57617188 C-94.52538179 22.4977253 -94.79240328 16.97140928 -94.04296875 11.36328125 C-91.93026174 6.22615965 -88.69150783 2.42153065 -84.04296875 -0.63671875 C-77.98409866 -2.65634211 -70.60073345 -2.72379947 -64.66796875 -0.19921875 C-56.79179005 4.667948 -52.52774082 15.52097468 -48.04296875 23.30078125 C-46.85608244 25.35191774 -45.66858839 27.40270267 -44.48046875 29.453125 C-43.62606201 30.93619141 -43.62606201 30.93619141 -42.75439453 32.44921875 C-41.61902134 34.38243051 -40.45595857 36.29966003 -39.26513672 38.19921875 C-38.71486816 39.07707031 -38.16459961 39.95492187 -37.59765625 40.859375 C-36.85491455 42.01651001 -36.85491455 42.01651001 -36.09716797 43.19702148 C-34.42706026 46.6289033 -34.95443586 48.78667319 -36.04296875 52.36328125 C-38.66796875 52.92578125 -38.66796875 52.92578125 -42.04296875 52.36328125 C-47.93127633 45.74251788 -51.87331783 36.82554839 -56.23046875 29.11328125 C-57.29978876 27.22752586 -58.37005203 25.34230967 -59.44075012 23.45733643 C-60.40505533 21.75859926 -61.36702848 20.05853889 -62.32885742 18.35839844 C-62.89451416 17.37000977 -63.4601709 16.38162109 -64.04296875 15.36328125 C-64.54997314 14.4496582 -65.05697754 13.53603516 -65.5793457 12.59472656 C-67.00247893 10.10751433 -67.00247893 10.10751433 -70.04296875 8.36328125 C-74.77386281 7.52164279 -78.08765859 7.7199091 -82.10546875 10.42578125 C-84.59690893 14.20312603 -84.52186848 15.87246678 -84.04296875 20.36328125 C-82.77322832 23.55800349 -81.09042937 26.46305676 -79.35546875 29.42578125 C-78.86506104 30.28921143 -78.37465332 31.1526416 -77.86938477 32.04223633 C-76.27908154 34.82707953 -74.66462393 37.59658983 -73.04296875 40.36328125 C-72.50317383 41.28786133 -71.96337891 42.21244141 -71.40722656 43.16503906 C-68.69235063 47.80639226 -65.95646356 52.43447876 -63.19921875 57.05078125 C-61.14589073 60.49135771 -59.1245992 63.94699046 -57.13671875 67.42578125 C-56.46104858 68.6010437 -56.46104858 68.6010437 -55.77172852 69.80004883 C-54.93736789 71.25438246 -54.10927116 72.71233582 -53.28881836 74.17456055 C-51.29147904 77.63814723 -49.60221035 80.41536633 -46.04296875 82.36328125 C-41.74869401 82.74669864 -38.66927177 82.74415579 -35.04296875 80.36328125 C-33.27942353 78.01127718 -33.27942353 78.01127718 -31.73046875 75.1640625 C-31.12976563 74.11927734 -30.5290625 73.07449219 -29.91015625 71.99804688 C-29.29398437 70.90169922 -28.6778125 69.80535156 -28.04296875 68.67578125 C-27.42679687 67.59876953 -26.810625 66.52175781 -26.17578125 65.41210938 C-24.98313183 63.32497289 -23.79919192 61.23282981 -22.625 59.13525391 C-21.68158163 57.48223352 -20.70926036 55.84443164 -19.6796875 54.24365234 C-17.97199107 51.57721053 -17.05476688 49.72017472 -16.94921875 46.52734375 C-18.54986251 41.89691002 -20.99645096 37.90764287 -23.54296875 33.73828125 C-24.55785492 32.06129049 -25.56844939 30.3816931 -26.57421875 28.69921875 C-27.02345703 27.9623584 -27.47269531 27.22549805 -27.93554688 26.46630859 C-30.19330871 22.17875118 -30.44388372 18.17426092 -30.04296875 13.36328125 C-27.73766881 6.18352181 -23.06992128 1.6348955 -16.60546875 -2.01171875 C-10.21063456 -3.57143441 -5.74398633 -2.93850248 0 0 Z " fill="#00A8B3" transform="translate(260.04296875,204.63671875)"/>
<path d="M0 0 C7.8761787 4.86716675 12.14022793 15.72019343 16.625 23.5 C17.81188631 25.55113649 18.99938036 27.60192142 20.1875 29.65234375 C21.04190674 31.13541016 21.04190674 31.13541016 21.91357422 32.6484375 C23.04894741 34.58164926 24.21201018 36.49887878 25.40283203 38.3984375 C25.95310059 39.27628906 26.50336914 40.15414062 27.0703125 41.05859375 C27.8130542 42.21572876 27.8130542 42.21572876 28.57080078 43.39624023 C30.24090849 46.82812205 29.71353289 48.98589194 28.625 52.5625 C26 53.125 26 53.125 22.625 52.5625 C16.73669242 45.94173663 12.79465092 37.02476714 8.4375 29.3125 C7.36817999 27.42674461 6.29791672 25.54152842 5.22721863 23.65655518 C4.26291342 21.95781801 3.30094027 20.25775764 2.33911133 18.55761719 C1.77345459 17.56922852 1.20779785 16.58083984 0.625 15.5625 C0.11799561 14.64887695 -0.38900879 13.73525391 -0.91137695 12.79394531 C-2.33451018 10.30673308 -2.33451018 10.30673308 -5.375 8.5625 C-10.10589406 7.72086154 -13.41968984 7.91912785 -17.4375 10.625 C-19.92894018 14.40234478 -19.85389973 16.07168553 -19.375 20.5625 C-18.10525957 23.75722224 -16.42246062 26.66227551 -14.6875 29.625 C-13.95188843 30.92014526 -13.95188843 30.92014526 -13.20141602 32.24145508 C-11.61111279 35.02629828 -9.99665518 37.79580858 -8.375 40.5625 C-7.83520508 41.48708008 -7.29541016 42.41166016 -6.73925781 43.36425781 C-4.02438188 48.00561101 -1.28849481 52.63369751 1.46875 57.25 C3.52207802 60.69057646 5.54336955 64.14620921 7.53125 67.625 C8.20692017 68.80026245 8.20692017 68.80026245 8.89624023 69.99926758 C9.73060086 71.45360121 10.55869759 72.91155457 11.37915039 74.3737793 C13.37648971 77.83736598 15.0657584 80.61458508 18.625 82.5625 C22.91815429 82.94581735 26.00152818 82.94688934 29.625 80.5625 C31.4051237 78.17753084 31.4051237 78.17753084 32.97265625 75.29296875 C33.57787109 74.23916016 34.18308594 73.18535156 34.80664062 72.09960938 C35.42732422 70.99423828 36.04800781 69.88886719 36.6875 68.75 C37.31205078 67.65623047 37.93660156 66.56246094 38.58007812 65.43554688 C39.74595401 63.39370874 40.90733669 61.34929373 42.06274414 59.30151367 C42.57828857 58.39763916 43.09383301 57.49376465 43.625 56.5625 C44.3838147 55.19025269 44.3838147 55.19025269 45.15795898 53.7902832 C46.96742644 51.04250644 48.52439622 50.48430112 51.625 49.5625 C53.74751709 53.01159027 53.95374757 55.54839863 53.625 59.5625 C52.26733398 62.64282227 52.26733398 62.64282227 50.37109375 65.87890625 C50.03255875 66.45785141 49.69402374 67.03679657 49.3452301 67.63328552 C48.6278762 68.85143268 47.90385233 70.06567384 47.17358398 71.27612305 C46.07038083 73.11188607 44.99818572 74.96335362 43.92773438 76.81835938 C39.61216728 84.15178125 35.99612006 89.77212665 27.625 92.5625 C21.72882087 93.25257134 16.27638506 93.64444176 11.25 90.125 C3.68448791 83.16284665 -0.88257674 73.34933156 -5.875 64.5 C-7.28058819 62.01841438 -8.68869034 59.53826293 -10.09765625 57.05859375 C-10.45162979 56.43516083 -10.80560333 55.81172791 -11.17030334 55.16940308 C-13.57812399 50.93756724 -16.02325711 46.72929731 -18.49609375 42.53515625 C-19.13933594 41.44275635 -19.78257812 40.35035645 -20.4453125 39.22485352 C-21.66653044 37.15654337 -22.8916367 35.09052286 -24.12109375 33.02709961 C-24.66765625 32.10034424 -25.21421875 31.17358887 -25.77734375 30.21875 C-26.25679443 29.41244141 -26.73624512 28.60613281 -27.23022461 27.77539062 C-29.85741304 22.69694405 -30.12443453 17.17062803 -29.375 11.5625 C-27.26229299 6.4253784 -24.02353908 2.6207494 -19.375 -0.4375 C-13.31612991 -2.45712336 -5.9327647 -2.52458072 0 0 Z " fill="#00A9C5" transform="translate(195.375,204.4375)"/>
<path d="M0 0 C3 0.25 3 0.25 5 2.25 C5.31884766 4.12939453 5.31884766 4.12939453 5.4140625 6.3828125 C5.45273438 7.18847656 5.49140625 7.99414062 5.53125 8.82421875 C5.5621875 9.66597656 5.593125 10.50773437 5.625 11.375 C5.66367188 12.22449219 5.70234375 13.07398438 5.7421875 13.94921875 C5.83656494 16.04911684 5.91937586 18.14952891 6 20.25 C6.66 19.92 7.32 19.59 8 19.25 C8.04898438 18.04601562 8.09796875 16.84203125 8.1484375 15.6015625 C8.22346343 14.02601802 8.29901133 12.45049834 8.375 10.875 C8.42140625 9.68390625 8.42140625 9.68390625 8.46875 8.46875 C8.7734375 2.4765625 8.7734375 2.4765625 11 0.25 C14 0 14 0 17 0.25 C20.02093215 3.27093215 19.46676834 6.81372072 19.625 10.875 C19.66367188 11.67679687 19.70234375 12.47859375 19.7421875 13.3046875 C19.83653931 15.28607556 19.91936215 17.26800645 20 19.25 C21.74899588 15.75200824 21.36915932 11.53352502 21.51757812 7.66015625 C21.78599531 2.46400469 21.78599531 2.46400469 24 0.25 C26.5 0 26.5 0 29 0.25 C31 2.25 31 2.25 31.265625 5.19140625 C31.18418202 24.06581798 31.18418202 24.06581798 25 30.25 C22.20129973 31.64935013 20.09501208 31.50265405 17 31.25 C15.125 29.75 15.125 29.75 14 28.25 C11.3094472 29.47007944 11.3094472 29.47007944 9 31.25 C5.26223726 31.75969492 3.50263882 31.57729969 0.3125 29.5 C-5.11237872 21.87584612 -6.14779044 11.40251075 -5 2.25 C-3 0.25 -3 0.25 0 0 Z " fill="#BDC0C2" transform="translate(61,434.75)"/>
<path d="M0 0 C1.30710938 -0.00773437 2.61421875 -0.01546875 3.9609375 -0.0234375 C7.7375366 0.38723746 9.64009557 1.08321945 12.625 3.375 C14.25982597 6.64465194 13.99249111 10.08878112 13 13.5625 C12.87625 14.160625 12.7525 14.75875 12.625 15.375 C13.615 16.86 13.615 16.86 14.625 18.375 C15.0625 21.25 15.0625 21.25 14.625 24.375 C12.1875 27.1875 12.1875 27.1875 9.625 29.375 C9.295 29.705 8.965 30.035 8.625 30.375 C5.79913249 30.52822744 3.01456118 30.60662755 0.1875 30.625 C-0.60205078 30.645625 -1.39160156 30.66625 -2.20507812 30.6875 C-4.49609375 30.703125 -4.49609375 30.703125 -8.375 30.375 C-11.48996916 25.70254625 -10.70350857 20.86914246 -10.6875 15.375 C-10.70361328 14.26898438 -10.71972656 13.16296875 -10.73632812 12.0234375 C-10.73697266 10.96382813 -10.73761719 9.90421875 -10.73828125 8.8125 C-10.74126221 7.84183594 -10.74424316 6.87117188 -10.74731445 5.87109375 C-10.375 3.375 -10.375 3.375 -9.06469727 1.56005859 C-6.22800582 -0.42943718 -3.38947866 -0.01997728 0 0 Z " fill="#C2C4C6" transform="translate(138.375,434.625)"/>
<path d="M0 0 C3.625 0.4375 3.625 0.4375 6 2.8125 C7.625 5.4375 7.625 5.4375 8.625 7.4375 C8.934375 6.468125 9.24375 5.49875 9.5625 4.5 C10.625 1.4375 10.625 1.4375 11.625 0.4375 C14.0625 0.1875 14.0625 0.1875 16.625 0.4375 C18.90031766 3.85047648 18.88174679 5.11880905 18.890625 9.12890625 C18.89449219 10.79276367 18.89449219 10.79276367 18.8984375 12.49023438 C18.89070313 13.64845703 18.88296875 14.80667969 18.875 16 C18.88273437 17.16208984 18.89046875 18.32417969 18.8984375 19.52148438 C18.89585937 20.62943359 18.89328125 21.73738281 18.890625 22.87890625 C18.88836914 23.89670166 18.88611328 24.91449707 18.88378906 25.96313477 C18.625 28.4375 18.625 28.4375 16.625 30.4375 C13.3125 31.0625 13.3125 31.0625 9.625 30.4375 C7.48637596 28.00095818 6.0339645 25.34632994 4.625 22.4375 C4.315625 23.571875 4.00625 24.70625 3.6875 25.875 C2.625 29.4375 2.625 29.4375 1.625 30.4375 C-1.375 30.5625 -1.375 30.5625 -4.375 30.4375 C-7.07571153 27.73678847 -5.56065282 19.64079036 -5.5625 16 C-5.58086914 14.10024414 -5.58086914 14.10024414 -5.59960938 12.16210938 C-5.60154297 10.95490234 -5.60347656 9.74769531 -5.60546875 8.50390625 C-5.60957764 7.38959229 -5.61368652 6.27527832 -5.61791992 5.12719727 C-5.24056279 0.94896254 -4.06970585 0.52755446 0 0 Z " fill="#C4C6C8" transform="translate(350.375,434.5625)"/>
<path d="M0 0 C3.7969009 1.93567497 4.66369386 2.99108158 6 7 C6 10.44970391 5.35053534 11.55544325 3 14 C3.495 14.33 3.99 14.66 4.5 15 C6.44066795 17.58755727 6.53525308 19.81153224 6.4296875 22.99609375 C5.70852632 26.35932726 3.61797976 27.94301591 1 30 C-2.44640377 31.72320188 -6.2242282 31.3723512 -10 31 C-13.63467079 29.37599816 -14.77408696 28.33886956 -17 25 C-16.45945946 20.45945946 -16.45945946 20.45945946 -15 19 C-12.5625 18.8125 -12.5625 18.8125 -10 19 C-9.34 19.66 -8.68 20.32 -8 21 C-7.01 21 -6.02 21 -5 21 C-5.61488281 20.68546875 -6.22976563 20.3709375 -6.86328125 20.046875 C-7.67152344 19.61890625 -8.47976563 19.1909375 -9.3125 18.75 C-10.11300781 18.33234375 -10.91351563 17.9146875 -11.73828125 17.484375 C-14.17193433 15.88715882 -15.47813381 14.46763161 -17 12 C-17.6951533 8.00286855 -17.12758189 6.2460508 -15.25 2.625 C-11.27907412 -1.71106849 -5.36267221 -0.86040107 0 0 Z " fill="#C0C2C4" transform="translate(303,435)"/>
<path d="M0 0 C3.25 1.5625 3.25 1.5625 5 4 C5.54226552 8.41559065 5.48836965 10.26744552 3 14 C3.7734375 14.7115625 3.7734375 14.7115625 4.5625 15.4375 C6.4601947 18.82034708 6.28441483 21.09685105 5.6875 24.87109375 C5 27 5 27 2.5625 29.5625 C-2.11848295 31.45131768 -6.02316199 31.93416377 -11 31 C-13.83380155 29.63350281 -14.89631194 28.49120954 -17 26 C-17.5 23.3125 -17.5 23.3125 -17 21 C-16.34 20.34 -15.68 19.68 -15 19 C-12 19.375 -12 19.375 -9 20 C-8.34 20 -7.68 20 -7 20 C-7.55429687 19.75765625 -8.10859375 19.5153125 -8.6796875 19.265625 C-9.76636719 18.76289063 -9.76636719 18.76289063 -10.875 18.25 C-11.59429687 17.92515625 -12.31359375 17.6003125 -13.0546875 17.265625 C-15.39129947 15.74541962 -16.03866709 14.59120698 -17 12 C-17.53361358 7.80732185 -17.4273397 5.71732021 -15.25 2.0625 C-10.31593062 -1.06873633 -5.68508981 -0.8323474 0 0 Z " fill="#C7C9CA" transform="translate(394,435)"/>
<path d="M0 0 C0.68513672 0.00515625 1.37027344 0.0103125 2.07617188 0.015625 C7.12737462 0.09493731 7.12737462 0.09493731 9.4375 1.25 C9.4375 3.23 9.4375 5.21 9.4375 7.25 C6.48085481 8.7283226 3.69520263 8.31032783 0.4375 8.25 C0.4375 9.24 0.4375 10.23 0.4375 11.25 C1.860625 11.188125 1.860625 11.188125 3.3125 11.125 C6.4375 11.25 6.4375 11.25 8.4375 13.25 C8.25 15.75 8.25 15.75 7.4375 18.25 C4.4375 20.25 4.4375 20.25 0.4375 20.25 C0.4375 20.91 0.4375 21.57 0.4375 22.25 C2.355625 22.188125 2.355625 22.188125 4.3125 22.125 C6.4921875 22.0546875 6.4921875 22.0546875 8.4375 22.25 C9.0975 22.91 9.7575 23.57 10.4375 24.25 C9.88194444 28.80555556 9.88194444 28.80555556 8.4375 30.25 C5.61163249 30.40322744 2.82706118 30.48162755 0 30.5 C-0.78955078 30.520625 -1.57910156 30.54125 -2.39257812 30.5625 C-4.68359375 30.578125 -4.68359375 30.578125 -8.5625 30.25 C-11.67746916 25.57754625 -10.89100857 20.74414246 -10.875 15.25 C-10.89111328 14.14398438 -10.90722656 13.03796875 -10.92382812 11.8984375 C-10.92447266 10.83882813 -10.92511719 9.77921875 -10.92578125 8.6875 C-10.92876221 7.71683594 -10.93174316 6.74617188 -10.93481445 5.74609375 C-10.5625 3.25 -10.5625 3.25 -9.25878906 1.43066406 C-6.44222445 -0.52974274 -3.29874579 -0.09986742 0 0 Z " fill="#C7C8CA" transform="translate(417.5625,434.75)"/>
<path d="M0 0 C0.68513672 0.00515625 1.37027344 0.0103125 2.07617188 0.015625 C7.12737462 0.09493731 7.12737462 0.09493731 9.4375 1.25 C9.4375 3.23 9.4375 5.21 9.4375 7.25 C6.48085481 8.7283226 3.69520263 8.31032783 0.4375 8.25 C0.4375 9.24 0.4375 10.23 0.4375 11.25 C1.860625 11.188125 1.860625 11.188125 3.3125 11.125 C6.4375 11.25 6.4375 11.25 8.4375 13.25 C8.25 15.75 8.25 15.75 7.4375 18.25 C4.4375 20.25 4.4375 20.25 0.4375 20.25 C0.4375 20.91 0.4375 21.57 0.4375 22.25 C2.355625 22.188125 2.355625 22.188125 4.3125 22.125 C6.4921875 22.0546875 6.4921875 22.0546875 8.4375 22.25 C9.0975 22.91 9.7575 23.57 10.4375 24.25 C9.88194444 28.80555556 9.88194444 28.80555556 8.4375 30.25 C5.61163249 30.40322744 2.82706118 30.48162755 0 30.5 C-0.78955078 30.520625 -1.57910156 30.54125 -2.39257812 30.5625 C-4.68359375 30.578125 -4.68359375 30.578125 -8.5625 30.25 C-11.67746916 25.57754625 -10.89100857 20.74414246 -10.875 15.25 C-10.89111328 14.14398438 -10.90722656 13.03796875 -10.92382812 11.8984375 C-10.92447266 10.83882813 -10.92511719 9.77921875 -10.92578125 8.6875 C-10.92876221 7.71683594 -10.93174316 6.74617188 -10.93481445 5.74609375 C-10.5625 3.25 -10.5625 3.25 -9.25878906 1.43066406 C-6.44222445 -0.52974274 -3.29874579 -0.09986742 0 0 Z " fill="#C7C8CA" transform="translate(199.5625,434.75)"/>
<path d="M0 0 C0.73734375 0.00773437 1.4746875 0.01546875 2.234375 0.0234375 C3.34039062 0.01183594 3.34039062 0.01183594 4.46875 0 C9.9810554 0.0201179 9.9810554 0.0201179 12.234375 2.2734375 C11.67881944 6.82899306 11.67881944 6.82899306 10.234375 8.2734375 C7.56378649 8.41458911 4.91005262 8.31590857 2.234375 8.2734375 C2.234375 9.2634375 2.234375 10.2534375 2.234375 11.2734375 C3.6575 11.2425 3.6575 11.2425 5.109375 11.2109375 C8.234375 11.2734375 8.234375 11.2734375 10.234375 12.2734375 C10.421875 15.1484375 10.421875 15.1484375 10.234375 18.2734375 C7.234375 20.2734375 7.234375 20.2734375 3.234375 20.2734375 C3.234375 20.9334375 3.234375 21.5934375 3.234375 22.2734375 C4.905 22.2425 4.905 22.2425 6.609375 22.2109375 C10.234375 22.2734375 10.234375 22.2734375 12.234375 23.2734375 C12.27691856 25.27298496 12.27518283 27.27385386 12.234375 29.2734375 C10.13306115 31.37475135 5.69291178 30.45858491 2.796875 30.4609375 C2.00732422 30.47318359 1.21777344 30.48542969 0.40429688 30.49804688 C-1.65369935 30.50331029 -3.71124509 30.39550035 -5.765625 30.2734375 C-8.45049665 27.58856585 -8.02331949 26.20866769 -8.03125 22.4609375 C-8.03382812 21.30335938 -8.03640625 20.14578125 -8.0390625 18.953125 C-8.03132813 17.73882812 -8.02359375 16.52453125 -8.015625 15.2734375 C-8.02335937 14.05914062 -8.03109375 12.84484375 -8.0390625 11.59375 C-8.03648438 10.43617188 -8.03390625 9.27859375 -8.03125 8.0859375 C-8.02899414 7.01988281 -8.02673828 5.95382812 -8.02441406 4.85546875 C-7.50512419 -0.32567246 -4.52566482 0.01651702 0 0 Z " fill="#CECFD0" transform="translate(107.765625,434.7265625)"/>
<path d="M0 0 C0.73734375 0.00773437 1.4746875 0.01546875 2.234375 0.0234375 C3.34039062 0.01183594 3.34039062 0.01183594 4.46875 0 C9.9810554 0.0201179 9.9810554 0.0201179 12.234375 2.2734375 C11.67881944 6.82899306 11.67881944 6.82899306 10.234375 8.2734375 C7.56378649 8.41458911 4.91005262 8.31590857 2.234375 8.2734375 C2.234375 9.2634375 2.234375 10.2534375 2.234375 11.2734375 C3.6575 11.2115625 3.6575 11.2115625 5.109375 11.1484375 C8.234375 11.2734375 8.234375 11.2734375 10.234375 13.2734375 C10.359375 15.8984375 10.359375 15.8984375 10.234375 18.2734375 C7.14627805 20.03806433 6.00125364 20.2734375 2.234375 20.2734375 C2.234375 20.9334375 2.234375 21.5934375 2.234375 22.2734375 C4.1525 22.2115625 4.1525 22.2115625 6.109375 22.1484375 C8.2890625 22.078125 8.2890625 22.078125 10.234375 22.2734375 C12.234375 24.2734375 12.234375 24.2734375 12.421875 26.8359375 C12.234375 29.2734375 12.234375 29.2734375 11.234375 30.2734375 C8.41021118 30.40006841 5.62142707 30.45864298 2.796875 30.4609375 C2.00732422 30.47318359 1.21777344 30.48542969 0.40429688 30.49804688 C-1.65369935 30.50331029 -3.71124509 30.39550035 -5.765625 30.2734375 C-8.45049665 27.58856585 -8.02331949 26.20866769 -8.03125 22.4609375 C-8.03382813 21.30335938 -8.03640625 20.14578125 -8.0390625 18.953125 C-8.03132813 17.73882812 -8.02359375 16.52453125 -8.015625 15.2734375 C-8.02335937 14.05914062 -8.03109375 12.84484375 -8.0390625 11.59375 C-8.03648437 10.43617188 -8.03390625 9.27859375 -8.03125 8.0859375 C-8.02899414 7.01988281 -8.02673828 5.95382812 -8.02441406 4.85546875 C-7.50512419 -0.32567246 -4.52566482 0.01651702 0 0 Z " fill="#D8D8D8" transform="translate(324.765625,434.7265625)"/>
<path d="M0 0 C3.39890142 2.06889652 5.88937011 4.11279537 7 8 C6.64768413 14.02685012 4.68655274 17.95563811 1.5625 22.9375 C1.15451172 23.62134766 0.74652344 24.30519531 0.32617188 25.00976562 C-0.71781749 26.71455086 -1.85206483 28.36340251 -3 30 C-3.66 30 -4.32 30 -5 30 C-6.51848531 27.32156064 -8.01449742 24.63415558 -9.5 21.9375 C-9.92925781 21.18533203 -10.35851562 20.43316406 -10.80078125 19.65820312 C-13.37497504 14.93884784 -14.70432993 11.51725114 -14 6 C-10.25857106 0.26314229 -6.7559306 -0.94660832 0 0 Z " fill="#001629" transform="translate(254,212)"/>
<path d="M0 0 C0.89009766 -0.00128906 1.78019531 -0.00257813 2.69726562 -0.00390625 C3.63376953 -0.00003906 4.57027344 0.00382812 5.53515625 0.0078125 C6.46779297 0.00394531 7.40042969 0.00007813 8.36132812 -0.00390625 C9.25271484 -0.00261719 10.14410156 -0.00132812 11.0625 0 C11.88355225 0.00112793 12.70460449 0.00225586 13.55053711 0.00341797 C15.59765625 0.1328125 15.59765625 0.1328125 17.59765625 1.1328125 C17.59765625 3.1128125 17.59765625 5.0928125 17.59765625 7.1328125 C15.28765625 7.4628125 12.97765625 7.7928125 10.59765625 8.1328125 C10.60551147 9.07918579 10.60551147 9.07918579 10.61352539 10.04467773 C10.63423451 12.88654597 10.64729691 15.72839838 10.66015625 18.5703125 C10.66853516 19.56353516 10.67691406 20.55675781 10.68554688 21.58007812 C10.69038086 22.99643555 10.69038086 22.99643555 10.6953125 24.44140625 C10.70316772 25.75322876 10.70316772 25.75322876 10.71118164 27.09155273 C10.59765625 29.1328125 10.59765625 29.1328125 9.59765625 30.1328125 C6.16015625 30.3203125 6.16015625 30.3203125 2.59765625 30.1328125 C0.59765625 28.1328125 0.59765625 28.1328125 0.37060547 26.06982422 C0.38631592 24.82869873 0.38631592 24.82869873 0.40234375 23.5625 C0.40878906 22.66660156 0.41523438 21.77070313 0.421875 20.84765625 C0.43863281 19.91050781 0.45539063 18.97335937 0.47265625 18.0078125 C0.48167969 17.06292969 0.49070313 16.11804688 0.5 15.14453125 C0.52361103 12.80703958 0.55654109 10.47005127 0.59765625 8.1328125 C-0.18609375 8.1740625 -0.96984375 8.2153125 -1.77734375 8.2578125 C-4.40234375 8.1328125 -4.40234375 8.1328125 -6.40234375 6.1328125 C-5.75732289 0.84364147 -5.21596293 0.00717534 0 0 Z " fill="#C7C9CA" transform="translate(164.40234375,434.8671875)"/>
<path d="M0 0 C1.670625 0.4021875 1.670625 0.4021875 3.375 0.8125 C4.54926264 3.16102528 4.49008173 4.55024065 4.47265625 7.1640625 C4.46943359 8.01484375 4.46621094 8.865625 4.46289062 9.7421875 C4.45451172 10.63164062 4.44613281 11.52109375 4.4375 12.4375 C4.43298828 13.3346875 4.42847656 14.231875 4.42382812 15.15625 C4.41202591 17.37506648 4.39556155 19.59375018 4.375 21.8125 C5.8290625 21.7815625 5.8290625 21.7815625 7.3125 21.75 C10.375 21.8125 10.375 21.8125 11.375 22.8125 C11.5 25.8125 11.5 25.8125 11.375 28.8125 C9.38715101 30.80034899 5.64799593 30.04247787 2.9375 30.0625 C2.24333984 30.083125 1.54917969 30.10375 0.83398438 30.125 C-1.18359375 30.140625 -1.18359375 30.140625 -4.625 29.8125 C-7.73996916 25.14004625 -6.95350857 20.30664246 -6.9375 14.8125 C-6.95361328 13.70648438 -6.96972656 12.60046875 -6.98632812 11.4609375 C-6.98697266 10.40132813 -6.98761719 9.34171875 -6.98828125 8.25 C-6.99126221 7.27933594 -6.99424316 6.30867188 -6.99731445 5.30859375 C-6.625 2.8125 -6.625 2.8125 -5.32885742 0.9609375 C-3.625 -0.1875 -3.625 -0.1875 0 0 Z " fill="#C1C3C5" transform="translate(223.625,435.1875)"/>
<path d="M0 0 C3 0.25 3 0.25 5 2.25 C5.22705078 4.31298828 5.22705078 4.31298828 5.1953125 6.8203125 C5.18564453 8.16416016 5.18564453 8.16416016 5.17578125 9.53515625 C5.15902344 10.47230469 5.14226562 11.40945313 5.125 12.375 C5.11597656 13.31988281 5.10695312 14.26476562 5.09765625 15.23828125 C5.07404522 17.57577292 5.04111516 19.91276123 5 22.25 C5.94875 22.20875 6.8975 22.1675 7.875 22.125 C11 22.25 11 22.25 13 24.25 C12.44444444 28.80555556 12.44444444 28.80555556 11 30.25 C8.69006618 30.37557162 6.37581464 30.42575729 4.0625 30.4375 C2.79535156 30.45167969 1.52820313 30.46585937 0.22265625 30.48046875 C-3 30.25 -3 30.25 -5 28.25 C-5.25878906 25.66796875 -5.25878906 25.66796875 -5.265625 22.4375 C-5.26820313 21.27992188 -5.27078125 20.12234375 -5.2734375 18.9296875 C-5.26570312 17.71539062 -5.25796875 16.50109375 -5.25 15.25 C-5.25773438 14.03570312 -5.26546875 12.82140625 -5.2734375 11.5703125 C-5.27085937 10.41273438 -5.26828125 9.25515625 -5.265625 8.0625 C-5.26336914 6.99644531 -5.26111328 5.93039062 -5.25878906 4.83203125 C-4.86964523 0.94940376 -3.82925686 0.31910474 0 0 Z " fill="#D1D2D3" transform="translate(248,434.75)"/>
<path d="M0 0 C2.475 0.495 2.475 0.495 5 1 C5.06058594 2.13179688 5.12117188 3.26359375 5.18359375 4.4296875 C5.26799917 5.91147145 5.35264717 7.3932416 5.4375 8.875 C5.47681641 9.62136719 5.51613281 10.36773437 5.55664062 11.13671875 C5.71573624 15.19986864 5.71573624 15.19986864 7 19 C8.65 19.33 10.3 19.66 12 20 C12.33 13.73 12.66 7.46 13 1 C14.65 0.67 16.3 0.34 18 0 C18.06058594 1.10859375 18.12117188 2.2171875 18.18359375 3.359375 C18.26802951 4.8229282 18.35267599 6.28646925 18.4375 7.75 C18.47681641 8.47960937 18.51613281 9.20921875 18.55664062 9.9609375 C18.76147098 13.4272973 19.0852002 16.65333026 20 20 C21.65 20 23.3 20 25 20 C25.98142381 15.75266168 26.30920379 11.52675467 26.5625 7.1875 C26.60568359 6.49462891 26.64886719 5.80175781 26.69335938 5.08789062 C26.79861453 3.39211314 26.89972863 1.69607948 27 0 C28.32 0 29.64 0 31 0 C31.44865262 7.62709451 31.04047033 17.28928571 26.05078125 23.37890625 C24 25 24 25 21.4375 25.1875 C17.77945926 23.40537759 17.28333707 20.7149231 16 17 C15.34 17.99 14.68 18.98 14 20 C10.75152749 24.81670061 10.75152749 24.81670061 7.4375 25.625 C5 25 5 25 3.3125 23 C-0.07518306 15.25672444 -0.25058008 8.35266941 0 0 Z " fill="#122336" transform="translate(59,438)"/>
<path d="M0 0 C1.15113281 -0.01417969 2.30226562 -0.02835937 3.48828125 -0.04296875 C6.51162237 0.17482994 8.15315871 0.6043189 10.6875 2.1875 C10.8125 5.0625 10.8125 5.0625 10.6875 8.1875 C10.0275 8.8475 9.3675 9.5075 8.6875 10.1875 C7.6975 10.1875 6.7075 10.1875 5.6875 10.1875 C5.6875 10.8475 5.6875 11.5075 5.6875 12.1875 C2.7175 12.1875 -0.2525 12.1875 -3.3125 12.1875 C-3.3125 15.8175 -3.3125 19.4475 -3.3125 23.1875 C-0.3425 22.5275 2.6275 21.8675 5.6875 21.1875 C6.42084429 17.20995872 6.42084429 17.20995872 6.6875 13.1875 C9.1625 14.1775 9.1625 14.1775 11.6875 15.1875 C12.05326193 18.47935738 12.0096413 19.77331832 9.9375 22.4375 C6.31299537 25.25655916 3.00373985 25.32580499 -1.5 25.3125 C-2.38042969 25.31507813 -3.26085937 25.31765625 -4.16796875 25.3203125 C-6.3125 25.1875 -6.3125 25.1875 -7.3125 24.1875 C-7.41182153 22.49191274 -7.44330007 20.79224253 -7.4453125 19.09375 C-7.44724609 17.54880859 -7.44724609 17.54880859 -7.44921875 15.97265625 C-7.44535156 14.88855469 -7.44148437 13.80445313 -7.4375 12.6875 C-7.44136719 11.60339844 -7.44523438 10.51929688 -7.44921875 9.40234375 C-7.44792969 8.37238281 -7.44664062 7.34242188 -7.4453125 6.28125 C-7.44418457 5.32927734 -7.44305664 4.37730469 -7.44189453 3.39648438 C-7.17401545 -1.17666643 -3.87336311 0.02154262 0 0 Z " fill="#0F2133" transform="translate(138.3125,437.8125)"/>
<path d="M0 0 C3 0.25 3 0.25 5 2.25 C5.25878906 4.83203125 5.25878906 4.83203125 5.265625 8.0625 C5.26820313 9.22007812 5.27078125 10.37765625 5.2734375 11.5703125 C5.26570313 12.78460938 5.25796875 13.99890625 5.25 15.25 C5.25773437 16.46429688 5.26546875 17.67859375 5.2734375 18.9296875 C5.27085937 20.08726562 5.26828125 21.24484375 5.265625 22.4375 C5.26336914 23.50355469 5.26111328 24.56960938 5.25878906 25.66796875 C5 28.25 5 28.25 3 30.25 C0 30.5 0 30.5 -3 30.25 C-5.68487165 27.56512835 -5.25769449 26.18523019 -5.265625 22.4375 C-5.26820313 21.27992188 -5.27078125 20.12234375 -5.2734375 18.9296875 C-5.26570313 17.71539062 -5.25796875 16.50109375 -5.25 15.25 C-5.25773437 14.03570312 -5.26546875 12.82140625 -5.2734375 11.5703125 C-5.27085937 10.41273438 -5.26828125 9.25515625 -5.265625 8.0625 C-5.26336914 6.99644531 -5.26111328 5.93039062 -5.25878906 4.83203125 C-4.86964523 0.94940376 -3.82925686 0.31910474 0 0 Z " fill="#C4C6C7" transform="translate(273,434.75)"/>
<path d="M0 0 C2.6875 0.4375 2.6875 0.4375 4.8125 2.875 C7.12419919 6.79361205 8.41301194 11.09265434 9.6875 15.4375 C10.6775 15.4375 11.6675 15.4375 12.6875 15.4375 C12.6875 10.4875 12.6875 5.5375 12.6875 0.4375 C13.6775 0.4375 14.6675 0.4375 15.6875 0.4375 C15.6875 8.3575 15.6875 16.2775 15.6875 24.4375 C14.3675 24.7675 13.0475 25.0975 11.6875 25.4375 C8.98420689 22.14159309 7.26849915 18.68136481 5.5 14.8125 C4.97019531 13.66523438 4.44039063 12.51796875 3.89453125 11.3359375 C2.6875 8.4375 2.6875 8.4375 2.6875 6.4375 C1.6975 6.4375 0.7075 6.4375 -0.3125 6.4375 C0.0175 12.3775 0.3475 18.3175 0.6875 24.4375 C-0.6325 24.4375 -1.9525 24.4375 -3.3125 24.4375 C-3.34137236 20.62501574 -3.35925492 16.8125593 -3.375 13 C-3.38337891 11.91138672 -3.39175781 10.82277344 -3.40039062 9.70117188 C-3.40361328 8.66669922 -3.40683594 7.63222656 -3.41015625 6.56640625 C-3.41539307 5.60806885 -3.42062988 4.64973145 -3.42602539 3.66235352 C-3.26954175 0.59561071 -3.00726545 0.56894211 0 0 Z " fill="#122335" transform="translate(350.3125,437.5625)"/>
<path d="M0 0 C5.74613003 6.73684211 5.74613003 6.73684211 7 11 C5.81214041 13.98901625 3.87710993 16.40758361 2 19 C0.92176273 20.76129535 -0.14066462 22.53236162 -1.1875 24.3125 C-2.74075624 26.923118 -4.31410574 29.47115862 -6 32 C-8.65117551 28.46754731 -10.32773323 25.39481856 -11 21 C-9.39683695 16.05032967 -6.07557907 11.91836018 -3.08935547 7.72412109 C-1.55383178 5.29385029 -0.74826182 2.76053656 0 0 Z " fill="#00A68E" transform="translate(261,221)"/>
<path d="M0 0 C2.9375 1.75 2.9375 1.75 5 4 C5 5.32 5 6.64 5 8 C4.01 8 3.02 8 2 8 C1.34 6.68 0.68 5.36 0 4 C-1.98 4 -3.96 4 -6 4 C-6.74957157 7.47147842 -6.74957157 7.47147842 -7 11 C-6.30132812 11.19335938 -5.60265625 11.38671875 -4.8828125 11.5859375 C-3.97273438 11.84632813 -3.06265625 12.10671875 -2.125 12.375 C-1.22007812 12.63023437 -0.31515625 12.88546875 0.6171875 13.1484375 C3 14 3 14 5 16 C5.55979644 21.26208651 5.55979644 21.26208651 3.625 23.8125 C-0.01782993 26.47456802 -3.62447641 26.49289495 -8 26 C-10.5 24.6875 -10.5 24.6875 -12 23 C-12 22.01 -12 21.02 -12 20 C-8.125 20.875 -8.125 20.875 -7 22 C-5.00041636 22.04080783 -2.99954746 22.04254356 -1 22 C-0.67 20.68 -0.34 19.36 0 18 C-0.70125 17.5875 -1.4025 17.175 -2.125 16.75 C-10.11111111 11.88888889 -10.11111111 11.88888889 -12 10 C-12.375 7.1875 -12.375 7.1875 -12 4 C-8.40147049 -0.14376125 -5.35124076 -0.76446297 0 0 Z " fill="#132436" transform="translate(301,437)"/>
<path d="M0 0 C1.93166016 0.01740234 1.93166016 0.01740234 3.90234375 0.03515625 C5.19269531 0.04417969 6.48304688 0.05320312 7.8125 0.0625 C8.81152344 0.07410156 9.81054688 0.08570313 10.83984375 0.09765625 C10.83984375 0.75765625 10.83984375 1.41765625 10.83984375 2.09765625 C7.53984375 2.09765625 4.23984375 2.09765625 0.83984375 2.09765625 C0.83984375 5.06765625 0.83984375 8.03765625 0.83984375 11.09765625 C3.47984375 11.09765625 6.11984375 11.09765625 8.83984375 11.09765625 C8.50984375 12.08765625 8.17984375 13.07765625 7.83984375 14.09765625 C5.52984375 14.09765625 3.21984375 14.09765625 0.83984375 14.09765625 C0.83984375 16.73765625 0.83984375 19.37765625 0.83984375 22.09765625 C4.13984375 22.09765625 7.43984375 22.09765625 10.83984375 22.09765625 C10.50984375 23.08765625 10.17984375 24.07765625 9.83984375 25.09765625 C7.69407738 25.12451563 5.5482173 25.14398713 3.40234375 25.16015625 C2.20738281 25.17175781 1.01242187 25.18335938 -0.21875 25.1953125 C-3.16015625 25.09765625 -3.16015625 25.09765625 -4.16015625 24.09765625 C-4.25947778 22.40206899 -4.29095632 20.70239878 -4.29296875 19.00390625 C-4.29490234 17.45896484 -4.29490234 17.45896484 -4.296875 15.8828125 C-4.29300781 14.79871094 -4.28914063 13.71460938 -4.28515625 12.59765625 C-4.28902344 11.51355469 -4.29289062 10.42945313 -4.296875 9.3125 C-4.29558594 8.28253906 -4.29429687 7.25257813 -4.29296875 6.19140625 C-4.29184082 5.23943359 -4.29071289 4.28746094 -4.28955078 3.30664062 C-4.0835973 -0.20933499 -3.6134906 0.11166535 0 0 Z " fill="#142638" transform="translate(323.16015625,437.90234375)"/>
<path d="M0 0 C4.62 0 9.24 0 14 0 C14 0.66 14 1.32 14 2 C11.03 2 8.06 2 5 2 C5 4.97 5 7.94 5 11 C7.64 11 10.28 11 13 11 C12.67 11.99 12.34 12.98 12 14 C9.69 14 7.38 14 5 14 C5 16.64 5 19.28 5 22 C8.3 22 11.6 22 15 22 C14.67 22.99 14.34 23.98 14 25 C11.85423363 25.02685938 9.70837355 25.04633088 7.5625 25.0625 C6.36753906 25.07410156 5.17257812 25.08570313 3.94140625 25.09765625 C1 25 1 25 0 24 C-0.08726223 22.21928754 -0.10699041 20.4351686 -0.09765625 18.65234375 C-0.09443359 17.57275391 -0.09121094 16.49316406 -0.08789062 15.38085938 C-0.07951172 14.24455078 -0.07113281 13.10824219 -0.0625 11.9375 C-0.05798828 10.79732422 -0.05347656 9.65714844 -0.04882812 8.48242188 C-0.0369976 5.65492582 -0.0190615 2.82745655 0 0 Z " fill="#122336" transform="translate(410,438)"/>
<path d="M0 0 C2.9375 2.3125 2.9375 2.3125 5 5 C5 5.99 5 6.98 5 8 C3.0625 7.6875 3.0625 7.6875 1 7 C0.67 6.01 0.34 5.02 0 4 C-2.31 4 -4.62 4 -7 4 C-7 5.98 -7 7.96 -7 10 C-3.04 11.98 0.92 13.96 5 16 C5 22 5 22 3 24.375 C-1.12138893 26.607419 -3.33753916 26.5180512 -8 26 C-10.5 24.6875 -10.5 24.6875 -12 23 C-12 22.01 -12 21.02 -12 20 C-8.125 20.875 -8.125 20.875 -7 22 C-5.00041636 22.04080783 -2.99954746 22.04254356 -1 22 C-1 20.35 -1 18.7 -1 17 C-2.06541016 16.49339844 -2.06541016 16.49339844 -3.15234375 15.9765625 C-4.07144531 15.53054688 -4.99054688 15.08453125 -5.9375 14.625 C-7.31228516 13.96371094 -7.31228516 13.96371094 -8.71484375 13.2890625 C-11 12 -11 12 -12 10 C-12.375 7.125 -12.375 7.125 -12 4 C-8.41805747 -0.1246611 -5.33387534 -0.85722997 0 0 Z " fill="#0A1C2F" transform="translate(392,437)"/>
<path d="M0 0 C4.62 0 9.24 0 14 0 C14 0.66 14 1.32 14 2 C11.03 2 8.06 2 5 2 C5 4.97 5 7.94 5 11 C7.64 11 10.28 11 13 11 C12.67 11.99 12.34 12.98 12 14 C9.69 14 7.38 14 5 14 C5 16.64 5 19.28 5 22 C8.3 22 11.6 22 15 22 C14.67 22.99 14.34 23.98 14 25 C11.85423363 25.02685938 9.70837355 25.04633088 7.5625 25.0625 C6.36753906 25.07410156 5.17257813 25.08570313 3.94140625 25.09765625 C1 25 1 25 0 24 C-0.08726223 22.21928754 -0.10699041 20.4351686 -0.09765625 18.65234375 C-0.09443359 17.57275391 -0.09121094 16.49316406 -0.08789062 15.38085938 C-0.07951172 14.24455078 -0.07113281 13.10824219 -0.0625 11.9375 C-0.05798828 10.79732422 -0.05347656 9.65714844 -0.04882812 8.48242188 C-0.0369976 5.65492582 -0.0190615 2.82745655 0 0 Z " fill="#122336" transform="translate(192,438)"/>
<path d="M0 0 C4.62 0 9.24 0 14 0 C14 0.66 14 1.32 14 2 C11.03 2 8.06 2 5 2 C5 4.97 5 7.94 5 11 C7.64 11 10.28 11 13 11 C12.67 11.99 12.34 12.98 12 14 C9.69 14 7.38 14 5 14 C5 16.64 5 19.28 5 22 C8.3 22 11.6 22 15 22 C14.67 22.99 14.34 23.98 14 25 C11.85423363 25.02685938 9.70837355 25.04633088 7.5625 25.0625 C6.36753906 25.07410156 5.17257813 25.08570313 3.94140625 25.09765625 C1 25 1 25 0 24 C-0.08726223 22.21928754 -0.10699041 20.4351686 -0.09765625 18.65234375 C-0.09443359 17.57275391 -0.09121094 16.49316406 -0.08789062 15.38085938 C-0.07951172 14.24455078 -0.07113281 13.10824219 -0.0625 11.9375 C-0.05798828 10.79732422 -0.05347656 9.65714844 -0.04882812 8.48242188 C-0.0369976 5.65492582 -0.0190615 2.82745655 0 0 Z " fill="#132436" transform="translate(103,438)"/>
<path d="M0 0 C0.2784375 0.8353125 0.2784375 0.8353125 0.5625 1.6875 C2.38279719 4.61580417 4.5855761 5.98725758 7.44140625 7.8515625 C9 9 9 9 10 11 C10.13867604 14.12322556 9.84518446 16.98836172 9 20 C5.62988386 23.54294261 2.66931612 24.2669404 -2.0625 24.5 C-5.64897598 24.35935388 -6.9497632 24.03014208 -10.125 22.125 C-12 20 -12 20 -12 18 C-9.83125748 18.50603992 -8.00032373 18.99983813 -6 20 C-0.57708915 20.3930265 -0.57708915 20.3930265 4.5 18.875 C6.62469505 16.61932646 6.62469505 16.61932646 6 11 C2.04 9.02 -1.92 7.04 -6 5 C-5.67 3.68 -5.34 2.36 -5 1 C-3 0 -3 0 0 0 Z " fill="#BCBEC1" transform="translate(390,442)"/>
<path d="M0 0 C3.625 0.4375 3.625 0.4375 6 2.8125 C7.625 5.4375 7.625 5.4375 8.625 7.4375 C9.285 6.1175 9.945 4.7975 10.625 3.4375 C11.285 3.4375 11.945 3.4375 12.625 3.4375 C12.625 8.3875 12.625 13.3375 12.625 18.4375 C11.635 18.4375 10.645 18.4375 9.625 18.4375 C7.315 13.8175 5.005 9.1975 2.625 4.4375 C0.975 4.4375 -0.675 4.4375 -2.375 4.4375 C-2.705 12.3575 -3.035 20.2775 -3.375 28.4375 C-4.035 28.4375 -4.695 28.4375 -5.375 28.4375 C-5.43283842 24.14588953 -5.4685412 19.85437855 -5.5 15.5625 C-5.51675781 14.33917969 -5.53351563 13.11585938 -5.55078125 11.85546875 C-5.55722656 10.68886719 -5.56367188 9.52226562 -5.5703125 8.3203125 C-5.58078613 7.24152832 -5.59125977 6.16274414 -5.60205078 5.05126953 C-5.24297948 0.9177025 -4.00831371 0.51959622 0 0 Z " fill="#CDCECF" transform="translate(350.375,434.5625)"/>
<path d="M0 0 C5.94 0 11.88 0 18 0 C18 0.66 18 1.32 18 2 C16.02 2 14.04 2 12 2 C12 9.26 12 16.52 12 24 C10.68 24.33 9.36 24.66 8 25 C7 24 7 24 6.88647461 21.86694336 C6.89171143 20.95050049 6.89694824 20.03405762 6.90234375 19.08984375 C6.90556641 18.10048828 6.90878906 17.11113281 6.91210938 16.09179688 C6.92048828 15.05087891 6.92886719 14.00996094 6.9375 12.9375 C6.94201172 11.89271484 6.94652344 10.84792969 6.95117188 9.77148438 C6.96300087 7.1809334 6.97948311 4.59049441 7 2 C4.69 2 2.38 2 0 2 C0 1.34 0 0.68 0 0 Z " fill="#0F2033" transform="translate(161,438)"/>
<path d="M0 0 C2.475 0.495 2.475 0.495 5 1 C5 7.93 5 14.86 5 22 C7.64 22 10.28 22 13 22 C12.67 22.99 12.34 23.98 12 25 C10.18757948 25.02687279 8.37504767 25.04633715 6.5625 25.0625 C5.55316406 25.07410156 4.54382813 25.08570313 3.50390625 25.09765625 C1 25 1 25 0 24 C-0.08726223 22.21928754 -0.10699041 20.4351686 -0.09765625 18.65234375 C-0.09443359 17.57275391 -0.09121094 16.49316406 -0.08789062 15.38085938 C-0.07951172 14.24455078 -0.07113281 13.10824219 -0.0625 11.9375 C-0.05798828 10.79732422 -0.05347656 9.65714844 -0.04882812 8.48242188 C-0.03699747 5.65489649 -0.0205141 2.8274736 0 0 Z " fill="#142537" transform="translate(220,438)"/>
<path d="M0 0 C-0.875 4.875 -0.875 4.875 -2 6 C-4.67058851 6.14115161 -7.32432238 6.04247107 -10 6 C-10 6.99 -10 7.98 -10 9 C-9.05125 8.95875 -8.1025 8.9175 -7.125 8.875 C-4 9 -4 9 -2 11 C-1.875 13.625 -1.875 13.625 -2 16 C-5.08809695 17.76462683 -6.23312136 18 -10 18 C-10.99 20.475 -10.99 20.475 -12 23 C-12.33 23 -12.66 23 -13 23 C-13 20.36 -13 17.72 -13 15 C-11.865625 14.87625 -10.73125 14.7525 -9.5625 14.625 C-8.386875 14.41875 -7.21125 14.2125 -6 14 C-5.67 13.34 -5.34 12.68 -5 12 C-7.64 12 -10.28 12 -13 12 C-13 9.03 -13 6.06 -13 3 C-9.7 3 -6.4 3 -3 3 C-3 2.34 -3 1.68 -3 1 C-7.29 1 -11.58 1 -16 1 C-16 0.67 -16 0.34 -16 0 C-14.08416353 -0.1958009 -12.16727461 -0.38132214 -10.25 -0.5625 C-8.64898437 -0.71912109 -8.64898437 -0.71912109 -7.015625 -0.87890625 C-4.35858796 -0.98560074 -2.50039428 -0.81930395 0 0 Z " fill="#C8C9CB" transform="translate(337,437)"/>
<path d="M0 0 C2.9375 0.1875 2.9375 0.1875 3.9375 1.1875 C4.00994053 3.20714199 4.02127188 5.22917124 4 7.25 C3.99097656 8.35472656 3.98195313 9.45945312 3.97265625 10.59765625 C3.96105469 11.45230469 3.94945313 12.30695313 3.9375 13.1875 C1.9375 11.1875 1.9375 11.1875 1.7421875 9.2421875 C1.80729167 7.22395833 1.87239583 5.20572917 1.9375 3.1875 C0.6175 3.5175 -0.7025 3.8475 -2.0625 4.1875 C-2.12308594 5.39148438 -2.18367188 6.59546875 -2.24609375 7.8359375 C-2.33049732 9.41147077 -2.41514541 10.98699096 -2.5 12.5625 C-2.55897461 13.75359375 -2.55897461 13.75359375 -2.61914062 14.96875 C-2.94921875 20.9609375 -2.94921875 20.9609375 -4.0625 23.1875 C-6.4375 23.375 -6.4375 23.375 -9.0625 23.1875 C-11.85614949 18.99702576 -11.4813507 14.87020047 -11.62890625 9.9921875 C-11.78829729 6.23610299 -11.92970037 4.38669944 -14.0625 1.1875 C-11.5875 1.6825 -11.5875 1.6825 -9.0625 2.1875 C-8.7325 8.1275 -8.4025 14.0675 -8.0625 20.1875 C-7.4025 19.8575 -6.7425 19.5275 -6.0625 19.1875 C-6.01351562 17.98351562 -5.96453125 16.77953125 -5.9140625 15.5390625 C-5.83903657 13.96351802 -5.76348867 12.38799834 -5.6875 10.8125 C-5.64109375 9.62140625 -5.64109375 9.62140625 -5.59375 8.40625 C-5.18244709 0.31729268 -5.18244709 0.31729268 0 0 Z " fill="#CDCECF" transform="translate(75.0625,434.8125)"/>
<path d="M0 0 C1.45599609 0.00580078 1.45599609 0.00580078 2.94140625 0.01171875 C5.4375 0.3125 5.4375 0.3125 7.4375 2.3125 C6.65503906 2.37308594 5.87257812 2.43367188 5.06640625 2.49609375 C3.54853516 2.62177734 3.54853516 2.62177734 2 2.75 C0.99066406 2.83121094 -0.01867187 2.91242188 -1.05859375 2.99609375 C-3.49890779 3.04461468 -3.49890779 3.04461468 -4.5625 4.3125 C-4.64963831 6.02022358 -4.66950007 7.73148649 -4.66015625 9.44140625 C-4.65693359 10.47587891 -4.65371094 11.51035156 -4.65039062 12.57617188 C-4.64201172 13.66478516 -4.63363281 14.75339844 -4.625 15.875 C-4.62048828 16.96748047 -4.61597656 18.05996094 -4.61132812 19.18554688 C-4.5994984 21.89455432 -4.58156231 24.6035338 -4.5625 27.3125 C-0.6025 27.6425 3.3575 27.9725 7.4375 28.3125 C7.4375 28.9725 7.4375 29.6325 7.4375 30.3125 C5.14640403 30.39325665 2.85450733 30.45157731 0.5625 30.5 C-1.35175781 30.55220703 -1.35175781 30.55220703 -3.3046875 30.60546875 C-4.37976563 30.50878906 -5.45484375 30.41210938 -6.5625 30.3125 C-9.67746916 25.64004625 -8.89100857 20.80664246 -8.875 15.3125 C-8.89111328 14.20648438 -8.90722656 13.10046875 -8.92382812 11.9609375 C-8.92447266 10.90132813 -8.92511719 9.84171875 -8.92578125 8.75 C-8.92876221 7.77933594 -8.93174316 6.80867188 -8.93481445 5.80859375 C-8.5625 3.3125 -8.5625 3.3125 -7.20410156 1.49536133 C-4.80619833 -0.23245562 -2.91838015 -0.0505179 0 0 Z " fill="#C6C8C9" transform="translate(136.5625,434.6875)"/>
<path d="M0 0 C1.32 0 2.64 0 4 0 C4 7.26 4 14.52 4 22 C6.64 22 9.28 22 12 22 C11.67 22.99 11.34 23.98 11 25 C7.37 25 3.74 25 0 25 C0 16.75 0 8.5 0 0 Z " fill="#071A2D" transform="translate(246,438)"/>
<path d="M0 0 C0.33 0 0.66 0 1 0 C2.57584644 8.01626233 2.57584644 8.01626233 0.5 11.5625 C-2.79785233 13.45876509 -5.26023276 13.2876744 -9 13 C-9 9.37 -9 5.74 -9 2 C-6.03 2 -3.06 2 0 2 C0 1.34 0 0.68 0 0 Z " fill="#B4B7BB" transform="translate(144,448)"/>
<path d="M0 0 C0.99 0 1.98 0 3 0 C4.00484204 1.95585325 5.00373805 3.91476237 6 5.875 C6.556875 6.96554687 7.11375 8.05609375 7.6875 9.1796875 C9 12 9 12 9 14 C8.01 14.33 7.02 14.66 6 15 C5.67 14.34 5.34 13.68 5 13 C4.690625 14.134375 4.38125 15.26875 4.0625 16.4375 C3 20 3 20 2 21 C0.00041636 21.04080783 -2.00045254 21.04254356 -4 21 C-4.33 20.34 -4.66 19.68 -5 19 C-3.35 18.67 -1.7 18.34 0 18 C0 12.06 0 6.12 0 0 Z " fill="#C2C4C6" transform="translate(350,444)"/>
<path d="M0 0 C0.8146875 0.00410889 1.629375 0.00821777 2.46875 0.01245117 C3.7990625 0.01535156 3.7990625 0.01535156 5.15625 0.01831055 C6.5484375 0.03667969 6.5484375 0.03667969 7.96875 0.05541992 C8.896875 0.05606445 9.825 0.05670898 10.78125 0.05737305 C17.68800626 0.10254805 17.68800626 0.10254805 19.96875 1.24291992 C19.96875 3.22291992 19.96875 5.20291992 19.96875 7.24291992 C18.64875 7.57291992 17.32875 7.90291992 15.96875 8.24291992 C15.96875 7.58291992 15.96875 6.92291992 15.96875 6.24291992 C14.31875 6.24291992 12.66875 6.24291992 10.96875 6.24291992 C10.96875 5.91291992 10.96875 5.58291992 10.96875 5.24291992 C12.94875 5.24291992 14.92875 5.24291992 16.96875 5.24291992 C16.96875 4.58291992 16.96875 3.92291992 16.96875 3.24291992 C11.02875 3.24291992 5.08875 3.24291992 -1.03125 3.24291992 C-1.03125 3.90291992 -1.03125 4.56291992 -1.03125 5.24291992 C1.27875 5.24291992 3.58875 5.24291992 5.96875 5.24291992 C5.96875 5.57291992 5.96875 5.90291992 5.96875 6.24291992 C4.31875 6.24291992 2.66875 6.24291992 0.96875 6.24291992 C0.96875 6.90291992 0.96875 7.56291992 0.96875 8.24291992 C-0.35125 7.91291992 -1.67125 7.58291992 -3.03125 7.24291992 C-3.65625 4.86791992 -3.65625 4.86791992 -4.03125 2.24291992 C-2.03125 0.24291992 -2.03125 0.24291992 0 0 Z " fill="#C0C2C4" transform="translate(162.03125,434.757080078125)"/>
<path d="M0 0 C1.32 0 2.64 0 4 0 C4 7.92 4 15.84 4 24 C2.68 24.33 1.36 24.66 0 25 C0 16.75 0 8.5 0 0 Z " fill="#03162A" transform="translate(271,438)"/>
<path d="M0 0 C0.73734375 0.00773437 1.4746875 0.01546875 2.234375 0.0234375 C3.34039062 0.01183594 3.34039062 0.01183594 4.46875 0 C9.9810554 0.0201179 9.9810554 0.0201179 12.234375 2.2734375 C11.859375 4.8984375 11.859375 4.8984375 11.234375 7.2734375 C10.244375 7.6034375 9.254375 7.9334375 8.234375 8.2734375 C8.234375 7.6134375 8.234375 6.9534375 8.234375 6.2734375 C5.594375 6.2734375 2.954375 6.2734375 0.234375 6.2734375 C0.234375 5.9434375 0.234375 5.6134375 0.234375 5.2734375 C3.204375 5.2734375 6.174375 5.2734375 9.234375 5.2734375 C9.234375 4.6134375 9.234375 3.9534375 9.234375 3.2734375 C8.31914063 3.2734375 7.40390625 3.2734375 6.4609375 3.2734375 C2.38541667 3.2734375 -1.69010417 3.2734375 -5.765625 3.2734375 C-6.095625 11.5234375 -6.425625 19.7734375 -6.765625 28.2734375 C-7.095625 28.2734375 -7.425625 28.2734375 -7.765625 28.2734375 C-7.82346342 23.98182703 -7.8591662 19.69031605 -7.890625 15.3984375 C-7.90738281 14.17511719 -7.92414063 12.95179688 -7.94140625 11.69140625 C-7.94785156 10.52480469 -7.95429687 9.35820312 -7.9609375 8.15625 C-7.97141113 7.07746582 -7.98188477 5.99868164 -7.99267578 4.88720703 C-7.5396144 -0.32835769 -4.53960683 0.01656791 0 0 Z " fill="#BDBFC2" transform="translate(107.765625,434.7265625)"/>
<path d="M0 0 C3.0625 0.1875 3.0625 0.1875 5.0625 2.1875 C5.32128906 4.21875 5.32128906 4.21875 5.328125 6.6875 C5.33070313 7.574375 5.33328125 8.46125 5.3359375 9.375 C5.32820312 10.303125 5.32046875 11.23125 5.3125 12.1875 C5.32023438 13.115625 5.32796875 14.04375 5.3359375 15 C5.33335937 15.886875 5.33078125 16.77375 5.328125 17.6875 C5.32586914 18.5021875 5.32361328 19.316875 5.32128906 20.15625 C5.0625 22.1875 5.0625 22.1875 3.0625 24.1875 C5.0425 24.1875 7.0225 24.1875 9.0625 24.1875 C9.0625 24.5175 9.0625 24.8475 9.0625 25.1875 C6.7525 25.1875 4.4425 25.1875 2.0625 25.1875 C2.0625 17.9275 2.0625 10.6675 2.0625 3.1875 C0.7425 3.1875 -0.5775 3.1875 -1.9375 3.1875 C-1.9375 11.1075 -1.9375 19.0275 -1.9375 27.1875 C-2.2675 27.1875 -2.5975 27.1875 -2.9375 27.1875 C-3.10522931 23.41671314 -3.27150125 19.64586341 -3.4375 15.875 C-3.50904297 14.2672168 -3.50904297 14.2672168 -3.58203125 12.62695312 C-3.62714844 11.59892578 -3.67226562 10.57089844 -3.71875 9.51171875 C-3.76064453 8.56385498 -3.80253906 7.61599121 -3.84570312 6.6394043 C-3.9137031 4.82311776 -3.9375 3.00505902 -3.9375 1.1875 C-2.9375 0.1875 -2.9375 0.1875 0 0 Z " fill="#A1A6AB" transform="translate(247.9375,434.8125)"/>
<path d="M0 0 C4.69286054 -0.92196021 8.84739787 -0.6115848 13.0625 1.625 C15.39140907 4.47979177 15.84114718 6.34638504 16 10 C15.67 10.66 15.34 11.32 15 12 C12.69 12 10.38 12 8 12 C7.34 10.68 6.68 9.36 6 8 C5.34 8 4.68 8 4 8 C3.34 8.66 2.68 9.32 2 10 C1.4375 8.0625 1.4375 8.0625 1 6 C2 5 2 5 5.0625 4.9375 C6.5165625 4.9684375 6.5165625 4.9684375 8 5 C8.66 6.65 9.32 8.3 10 10 C10.99 10 11.98 10 13 10 C11.75023244 6.34683329 11.32901247 5.21934164 8 3 C5.48415109 2.75849227 5.48415109 2.75849227 2.8125 2.875 C1.46091797 2.90207031 1.46091797 2.90207031 0.08203125 2.9296875 C-0.94857422 2.96449219 -0.94857422 2.96449219 -2 3 C-1.34 2.01 -0.68 1.02 0 0 Z " fill="#D0D0D1" transform="translate(293,435)"/>
<path d="M0 0 C5.75 0.75 5.75 0.75 8 3 C8.55979644 8.26208651 8.55979644 8.26208651 6.625 10.8125 C2.98217007 13.47456802 -0.62447641 13.49289495 -5 13 C-7.5 11.6875 -7.5 11.6875 -9 10 C-9 9.01 -9 8.02 -9 7 C-5.125 7.875 -5.125 7.875 -4 9 C-2.00041636 9.04080783 0.00045254 9.04254356 2 9 C2.77242269 7.16299211 2.77242269 7.16299211 3 5 C1.60411246 3.35405861 1.60411246 3.35405861 0 2 C0 1.34 0 0.68 0 0 Z " fill="#091C2F" transform="translate(298,450)"/>
<path d="M0 0 C4.875 0.875 4.875 0.875 6 2 C6.375 4.8125 6.375 4.8125 6 8 C3.8888112 10.5070367 2.29832538 11.77118622 -0.97265625 12.34765625 C-4.21990217 12.48725748 -6.61598673 12.20160697 -9.5 10.6875 C-11 9 -11 9 -11 6 C-7.125 6.875 -7.125 6.875 -6 8 C-4.00041636 8.04080783 -1.99954746 8.04254356 0 8 C0 5.36 0 2.72 0 0 Z " fill="#102134" transform="translate(391,451)"/>
<path d="M0 0 C0.66 0.66 1.32 1.32 2 2 C3.32 1.34 4.64 0.68 6 0 C6.309375 0.9590625 6.309375 0.9590625 6.625 1.9375 C7.89538209 4.34925077 7.89538209 4.34925077 11.125 4.75 C12.07375 4.8325 13.0225 4.915 14 5 C14 5.99 14 6.98 14 8 C14.66 8.66 15.32 9.32 16 10 C16.26991906 12.68839385 16.08737357 15.29141936 16 18 C15.01 17.67 14.02 17.34 13 17 C12.814375 15.906875 12.62875 14.81375 12.4375 13.6875 C11.43549301 9.89139171 11.43549301 9.89139171 8.6875 8.859375 C6.86744235 8.24924204 5.04583841 7.64370071 3.22265625 7.04296875 C2.48917969 6.69878906 1.75570313 6.35460937 1 6 C-0.125 2.75 -0.125 2.75 0 0 Z " fill="#A1A6AB" transform="translate(293,442)"/>
<path d="M0 0 C0.33 0.99 0.66 1.98 1 3 C1.62648438 2.97679687 2.25296875 2.95359375 2.8984375 2.9296875 C3.71570313 2.91164063 4.53296875 2.89359375 5.375 2.875 C6.18710937 2.85179687 6.99921875 2.82859375 7.8359375 2.8046875 C10 3 10 3 12 5 C12.1875 7.5625 12.1875 7.5625 12 10 C11 11 11 11 7.18359375 11.09765625 C5.60153318 11.09098089 4.01948841 11.07901875 2.4375 11.0625 C1.63119141 11.05798828 0.82488281 11.05347656 -0.00585938 11.04882812 C-2.00393756 11.03700518 -4.00197783 11.01906914 -6 11 C-5.67 10.34 -5.34 9.68 -5 9 C-1.63576389 8.6020796 1.70990324 8.49087377 5.09375 8.34375 C6.0528125 8.2303125 7.011875 8.116875 8 8 C8.33 7.34 8.66 6.68 9 6 C6.03 6 3.06 6 0 6 C0 4.02 0 2.04 0 0 Z " fill="#CDCECF" transform="translate(325,454)"/>
<path d="M0 0 C6.0546875 -0.1953125 6.0546875 -0.1953125 8 0 C8.66 0.66 9.32 1.32 10 2 C9.8125 4.5 9.8125 4.5 9 7 C5.5647952 9.29013653 4.014669 9.17842973 0 9 C0 6.03 0 3.06 0 0 Z " fill="#A7ACB0" transform="translate(135,440)"/>
<path d="M0 0 C2.5 0.25 2.5 0.25 4.5 2.25 C4.80078125 5 4.80078125 5 4.8125 8.25 C4.82925781 9.3225 4.84601563 10.395 4.86328125 11.5 C4.68345703 12.86125 4.68345703 12.86125 4.5 14.25 C3.51 14.91 2.52 15.57 1.5 16.25 C1.83 11.96 2.16 7.67 2.5 3.25 C1.18 3.25 -0.14 3.25 -1.5 3.25 C-1.54898438 3.96027344 -1.59796875 4.67054688 -1.6484375 5.40234375 C-1.72320312 6.32144531 -1.79796875 7.24054688 -1.875 8.1875 C-1.97941406 9.56228516 -1.97941406 9.56228516 -2.0859375 10.96484375 C-2.22257812 11.71894531 -2.35921875 12.47304688 -2.5 13.25 C-3.49 13.745 -3.49 13.745 -4.5 14.25 C-4.55389087 12.29196493 -4.59274217 10.33351091 -4.625 8.375 C-4.64820312 7.28445313 -4.67140625 6.19390625 -4.6953125 5.0703125 C-4.44023653 1.38701552 -3.71976026 0.37197603 0 0 Z " fill="#CDCECF" transform="translate(87.5,434.75)"/>
<path d="M0 0 C0.66 0.33 1.32 0.66 2 1 C1.505 1.70125 1.01 2.4025 0.5 3.125 C-1.26576304 6.50937915 -1.71928041 8.24375785 -1 12 C1.88509913 14.42422186 1.88509913 14.42422186 5 16 C4.67 16.99 4.34 17.98 4 19 C-3 15.88888889 -3 15.88888889 -5 12 C-5.53908066 8.90028621 -5.63053923 6.96332382 -3.875 4.28125 C-2.64550464 2.80026695 -1.3274688 1.39384224 0 0 Z " fill="#C5C7C8" transform="translate(291,435)"/>
<path d="M0 0 C0.226875 0.5775 0.45375 1.155 0.6875 1.75 C2.33038023 4.5663661 4.39533227 6.08077114 7 8 C6.01 8.66 5.02 9.32 4 10 C0.7 8.35 -2.6 6.7 -6 5 C-5.67 3.68 -5.34 2.36 -5 1 C-3 0 -3 0 0 0 Z " fill="#93999F" transform="translate(390,442)"/>
<path d="M0 0 C1.65 0 3.3 0 5 0 C5 0.66 5 1.32 5 2 C4.01 2 3.02 2 2 2 C2 8.93 2 15.86 2 23 C1.01 23 0.02 23 -1 23 C-0.67 15.41 -0.34 7.82 0 0 Z " fill="#D6D6D7" transform="translate(173,441)"/>
<path d="M0 0 C0.33 0 0.66 0 1 0 C1.33 8.58 1.66 17.16 2 26 C1.01 25.67 0.02 25.34 -1 25 C-1.02886984 21.02084841 -1.04675406 17.04172347 -1.0625 13.0625 C-1.07087891 11.92619141 -1.07925781 10.78988281 -1.08789062 9.61914062 C-1.09111328 8.53955078 -1.09433594 7.45996094 -1.09765625 6.34765625 C-1.10289307 5.34742432 -1.10812988 4.34719238 -1.11352539 3.31665039 C-1 1 -1 1 0 0 Z " fill="#D8D8D8" transform="translate(244,438)"/>
<path d="M0 0 C3 1 3 1 4 3 C4.08218856 6.09381241 3.8258134 9.01394624 3 12 C0.4375 14.0625 0.4375 14.0625 -2 15 C-2.33 14.34 -2.66 13.68 -3 13 C-2.505 12.46375 -2.01 11.9275 -1.5 11.375 C0.39525742 8.37417575 0.22301248 6.49386217 0 3 C0 2.01 0 1.02 0 0 Z " fill="#BBBEC1" transform="translate(396,450)"/>
<path d="M0 0 C3.40680413 0.30970947 5.56041967 0.68766661 8.375 2.6875 C10.43883512 5.62449613 10.31944345 7.48612204 10 11 C9.01 10.34 8.02 9.68 7 9 C7 7.68 7 6.36 7 5 C1.72 4.34 -3.56 3.68 -9 3 C-9 2.67 -9 2.34 -9 2 C-4.545 1.505 -4.545 1.505 0 1 C0 0.67 0 0.34 0 0 Z " fill="#B5B8BB" transform="translate(142,435)"/>
<path d="M0 0 C-0.33 1.65 -0.66 3.3 -1 5 C-2.32 5.33 -3.64 5.66 -5 6 C-5 5.34 -5 4.68 -5 4 C-7.64 4 -10.28 4 -13 4 C-13 3.67 -13 3.34 -13 3 C-9.7 3 -6.4 3 -3 3 C-3 2.34 -3 1.68 -3 1 C-7.29 1 -11.58 1 -16 1 C-16 0.67 -16 0.34 -16 0 C-14.08416353 -0.1958009 -12.16727461 -0.38132214 -10.25 -0.5625 C-8.64898437 -0.71912109 -8.64898437 -0.71912109 -7.015625 -0.87890625 C-4.35858796 -0.98560074 -2.50039428 -0.81930395 0 0 Z " fill="#B3B7BA" transform="translate(337,437)"/>
<path d="M0 0 C0 1.98 0 3.96 0 6 C-1.32 6.33 -2.64 6.66 -4 7 C-4 6.34 -4 5.68 -4 5 C-6.64 5 -9.28 5 -12 5 C-12 4.67 -12 4.34 -12 4 C-9.03 4 -6.06 4 -3 4 C-3 3.34 -3 2.68 -3 2 C-6.96 2 -10.92 2 -15 2 C-15 1.67 -15 1.34 -15 1 C-13.06263299 0.83179449 -11.12510094 0.66548905 -9.1875 0.5 C-7.56908203 0.36078125 -7.56908203 0.36078125 -5.91796875 0.21875 C-3 0 -3 0 0 0 Z " fill="#B5B9BC" transform="translate(427,436)"/>
<path d="M0 0 C0 1.98 0 3.96 0 6 C-1.32 6.33 -2.64 6.66 -4 7 C-4 6.34 -4 5.68 -4 5 C-6.64 5 -9.28 5 -12 5 C-12 4.67 -12 4.34 -12 4 C-9.03 4 -6.06 4 -3 4 C-3 3.34 -3 2.68 -3 2 C-6.96 2 -10.92 2 -15 2 C-15 1.67 -15 1.34 -15 1 C-13.06263299 0.83179449 -11.12510094 0.66548905 -9.1875 0.5 C-7.56908203 0.36078125 -7.56908203 0.36078125 -5.91796875 0.21875 C-3 0 -3 0 0 0 Z " fill="#B5B9BC" transform="translate(209,436)"/>
<path d="M0 0 C2.475 0.495 2.475 0.495 5 1 C5 5.95 5 10.9 5 16 C4.34 16.33 3.68 16.66 3 17 C2.92652344 15.53626953 2.92652344 15.53626953 2.8515625 14.04296875 C2.77679688 12.77066406 2.70203125 11.49835938 2.625 10.1875 C2.55539063 8.92292969 2.48578125 7.65835937 2.4140625 6.35546875 C2.23897061 2.87244766 2.23897061 2.87244766 0 0 Z " fill="#D6D6D6" transform="translate(61,436)"/>
<path d="M0 0 C4.45768233 -0.43702768 6.34650802 -0.51445113 9.9375 2.3125 C12 5 12 5 12 8 C10.0625 7.6875 10.0625 7.6875 8 7 C7.67 6.01 7.34 5.02 7 4 C4.03 3.505 4.03 3.505 1 3 C0.67 2.01 0.34 1.02 0 0 Z " fill="#2E3D4D" transform="translate(385,437)"/>
<path d="M0 0 C5.28 0 10.56 0 16 0 C13.35279622 2.64720378 11.81292293 2.35060223 8.125 2.5625 C4.62129624 2.77341091 1.37584901 3.01333882 -2 4 C-1.34 2.68 -0.68 1.36 0 0 Z " fill="#D0D1D2" transform="translate(319,435)"/>
<path d="M0 0 C4.74726951 1.05494878 8.74580276 2.23198214 12 6 C4.69565217 6.36521739 4.69565217 6.36521739 1.5 4.6875 C0 3 0 3 0 0 Z " fill="#18293A" transform="translate(289,457)"/>
<path d="M0 0 C1.2065625 0.0309375 1.2065625 0.0309375 2.4375 0.0625 C1.963125 0.743125 1.48875 1.42375 1 2.125 C-0.78087615 5.47304716 -1.06065605 8.33451636 -1.5625 12.0625 C-2.5525 12.5575 -2.5525 12.5575 -3.5625 13.0625 C-3.58936553 11.08340602 -3.60883375 9.10421029 -3.625 7.125 C-3.63660156 6.02285156 -3.64820312 4.92070312 -3.66015625 3.78515625 C-3.52747618 0.086036 -3.52747618 0.086036 0 0 Z " fill="#C6C8CA" transform="translate(86.5625,435.9375)"/>
<path d="M0 0 C0.99 0 1.98 0 3 0 C3 1.98 3 3.96 3 6 C1.68 6.33 0.36 6.66 -1 7 C-1 6.34 -1 5.68 -1 5 C-2.65 5 -4.3 5 -6 5 C-6 4.67 -6 4.34 -6 4 C-4.02 4 -2.04 4 0 4 C-0.33 3.01 -0.66 2.02 -1 1 C-0.67 0.67 -0.34 0.34 0 0 Z " fill="#BCBEC1" transform="translate(179,436)"/>
<path d="M0 0 C0.99 0.33 1.98 0.66 3 1 C2.67 2.65 2.34 4.3 2 6 C1.01 6.33 0.02 6.66 -1 7 C-1 6.34 -1 5.68 -1 5 C-3.64 5 -6.28 5 -9 5 C-9 4.67 -9 4.34 -9 4 C-6.03 4 -3.06 4 0 4 C0 2.68 0 1.36 0 0 Z " fill="#BFC1C4" transform="translate(117,436)"/>
<path d="M0 0 C3 3.75 3 3.75 3 6 C2.01 6.33 1.02 6.66 0 7 C-0.33 6.34 -0.66 5.68 -1 5 C-1.33 6.98 -1.66 8.96 -2 11 C-2.33 11 -2.66 11 -3 11 C-3 7.7 -3 4.4 -3 1 C-2.01 1.33 -1.02 1.66 0 2 C0 1.34 0 0.68 0 0 Z " fill="#959BA1" transform="translate(356,452)"/>
<path d="M0 0 C1.65 0 3.3 0 5 0 C5 3.96 5 7.92 5 12 C2.34884159 9.34884159 2.60927209 7.48610041 2.34375 3.875 C2.13964634 1.76097714 2.13964634 1.76097714 0 0 Z " fill="#D4D4D4" transform="translate(74,436)"/>
<path d="M0 0 C2.86724686 0.57344937 3.8614515 0.8614515 6 3 C6 4.32 6 5.64 6 7 C5.01 7 4.02 7 3 7 C0 2.77777778 0 2.77777778 0 0 Z " fill="#102234" transform="translate(300,438)"/>
<path d="M0 0 C1.65 0 3.3 0 5 0 C4.67 1.32 4.34 2.64 4 4 C2.68 4.33 1.36 4.66 0 5 C0 3.35 0 1.7 0 0 Z " fill="#152638" transform="translate(138,453)"/>
<path d="M0 0 C3 1 3 1 5 4 C5 4.99 5 5.98 5 7 C3.0625 6.3125 3.0625 6.3125 1 5 C0.25 2.375 0.25 2.375 0 0 Z " fill="#C6C8C9" transform="translate(357,458)"/>
<path d="M0 0 C0.99 0.33 1.98 0.66 3 1 C3 2.98 3 4.96 3 7 C2.01 7.495 2.01 7.495 1 8 C0.34 5.69 -0.32 3.38 -1 1 C-0.67 0.67 -0.34 0.34 0 0 Z " fill="#CCCDCF" transform="translate(396,450)"/>
<path d="M0 0 C0.99 0.33 1.98 0.66 3 1 C2.67 2.65 2.34 4.3 2 6 C0.68 5.67 -0.64 5.34 -2 5 C-1.34 3.35 -0.68 1.7 0 0 Z " fill="#C7C9CA" transform="translate(306,441)"/>
<path d="M0 0 C2.31 0 4.62 0 7 0 C6.67 0.99 6.34 1.98 6 3 C4.35 3 2.7 3 1 3 C0.67 2.01 0.34 1.02 0 0 Z " fill="#455260" transform="translate(294,437)"/>
<path d="M0 0 C1.98 0 3.96 0 6 0 C4 3 4 3 0.875 3.6875 C-0.07375 3.790625 -1.0225 3.89375 -2 4 C-1.34 2.68 -0.68 1.36 0 0 Z " fill="#C3C5C7" transform="translate(245,435)"/>
<path d="M0 0 C1.98 0 3.96 0 6 0 C4 3 4 3 0.875 3.6875 C-0.07375 3.790625 -1.0225 3.89375 -2 4 C-1.34 2.68 -0.68 1.36 0 0 Z " fill="#C5C6C8" transform="translate(72,435)"/>
</svg>
