<?xml version="1.0" encoding="UTF-8"?>
<!DOCTYPE svg PUBLIC "-//W3C//DTD SVG 1.1//EN" "http://www.w3.org/Graphics/SVG/1.1/DTD/svg11.dtd">
<!-- Creator: CorelDRAW 2021 (64-Bit) -->
<svg xmlns="http://www.w3.org/2000/svg" xml:space="preserve" width="0.959886in" height="0.890465in" version="1.1" style="shape-rendering:geometricPrecision; text-rendering:geometricPrecision; image-rendering:optimizeQuality; fill-rule:evenodd; clip-rule:evenodd"
viewBox="0 0 87.74 81.39"
 xmlns:xlink="http://www.w3.org/1999/xlink"
 xmlns:xodm="http://www.corel.com/coreldraw/odm/2003">
 <defs>
  <style type="text/css">
   <![CDATA[
    .fil0 {fill:url(#id0);fill-rule:nonzero}
   ]]>
  </style>
  <linearGradient id="id0" gradientUnits="objectBoundingBox" x1="46.6807%" y1="103.64%" x2="48.605%" y2="0%">
   <stop offset="0" style="stop-opacity:1; stop-color:#05B1E1"/>
   <stop offset="1" style="stop-opacity:1; stop-color:#66FFCC"/>
  </linearGradient>
 </defs>
 <g id="Layer_x0020_1">
  <metadata id="CorelCorpID_0Corel-Layer"/>
  <path class="fil0" d="M64.24 0.05l-26.28 66.56 -26.63 -66.51 -11.34 -0.1 30.73 75.85c2.98,7.41 11.85,7.39 14.78,-0.06l29.87 -75.71 -11.13 -0.03zm5.83 18.58l2.42 6c3.64,9 4.88,7.71 1.36,16.62l-10.03 25.36 -6.35 -15.98 -5.46 13.87 4.57 11.35c2.99,7.41 11.85,7.39 14.78,-0.06 4.54,-11.53 9.07,-23.06 13.61,-34.59 3.8,-9.67 3.73,-7.29 -0.55,-16.83l-8.86 -19.72 -5.5 13.97z"/>
  <path class="fil0" d="M49.82 31.35l-12.01 -31.27 -12.06 -0.01 18.54 45.25 5.52 -13.96zm-18.04 -28.68l1.44 0 12.96 30.76 -0.93 2.35 -13.46 -33.12z"/>
 </g>
</svg>
